<svg width="338" height="338" viewBox="0 0 338 338" fill="none" xmlns="http://www.w3.org/2000/svg">
<path d="M169 330C257.92 330 330 257.92 330 169C330 80.0797 257.92 8 169 8C80.0797 8 8 80.0797 8 169C8 257.92 80.0797 330 169 330Z" stroke="black" stroke-width="15" stroke-linecap="round" stroke-linejoin="round"/>
<path d="M206.561 281.7V251.706C206.963 246.715 206.271 241.724 204.532 237.007C202.782 232.286 200.036 227.998 196.482 224.433C230.18 220.778 265.6 208.333 265.6 151.274C265.569 136.608 259.788 122.538 249.5 112.087C254.396 99.3373 254.049 85.1682 248.534 72.6739C248.534 72.6739 235.863 69.0192 206.561 88.146C181.941 81.6555 156.059 81.6555 131.438 88.146C102.136 69.0192 89.4657 72.69 89.4657 72.69C83.9591 85.175 83.6118 99.3307 88.4997 112.071C78.1395 122.6 72.3536 136.792 72.3997 151.564C72.3997 208.22 107.82 220.649 141.517 224.722C138.002 228.257 135.279 232.499 133.531 237.168C131.796 241.801 131.082 246.755 131.438 251.69V281.7" stroke="black" stroke-width="15" stroke-linecap="round" stroke-linejoin="round"/>
<path d="M131.438 260.802C99.2385 270.961 72.3998 260.802 56.2998 229.439" stroke="black" stroke-width="15" stroke-linecap="round" stroke-linejoin="round"/>
</svg>
