<svg width="405" height="307" viewBox="0 0 405 307" fill="none" xmlns="http://www.w3.org/2000/svg">
<path d="M397 299.5H98V205.5M397 299.5V87.5M397 299.5L247.5 193.5M397 87.5L322.25 140.5M397 87.5V10.5L322.25 9.875M397 87.5H140M247.5 193.5L188.5 151.667M247.5 193.5L306.5 151.667M247.5 193.5V63.5V9.25M166 135.714L188.5 151.667M166 135.714V8.56857M166 135.714L140 118.5M322.25 140.5L306.5 151.667M322.25 140.5V9.875M188.5 151.667H306.5M166 8.56857L98 8C98 32.1845 98 53.3698 98 68.5M166 8.56857L247.5 9.25M247.5 9.25L322.25 9.875" stroke="black" stroke-width="15" stroke-linejoin="round"/>
<rect x="7.5" y="71.5" width="131" height="131" rx="10.5" stroke="black" stroke-width="15"/>
<path d="M109.5 137C109.5 160.784 92.5678 178.5 73.5 178.5C54.4322 178.5 37.5 160.784 37.5 137C37.5 113.216 54.4322 95.5 73.5 95.5C92.5678 95.5 109.5 113.216 109.5 137Z" stroke="black" stroke-width="15"/>
</svg>
